# xmcd
#
# Track frame offsets:
#	150
#	18088
#	33102
#	48840
#	67715
#	97857
#	113704
#	135597
#	150665
#	166245
#	183016
#	197430
#	212848
#	230597
#	248461
#	261902
#
# Disc length: 3684 seconds
#
# Revision: 0
# Processed by: cddbd v1.5.2PL0 Copyright (c) Steve Scherf et al.
# Submitted via: EasyCDDAExtractor 10.0.1.1
#
DISCID=b70e6210
DTITLE=Various Artist - TIME LIFE - DISCO FEVER - COULD IT BE MAGIC
DYEAR=1900
DGENRE=
TTITLE0=DONNA SUMMER - COULD IT BE MAGIC
TTITLE1=LOVE and KISSES - THANK GOD IT'S FRIDAY
TTITLE2=LA FLAVOUR - MANDOLAY
TTITLE3=D TRAIN - YOU'RE THE ONE FOR ME
TTITLE4=FONDA RAE - OVER LIKE A FAT RAT
TTITLE5=MUSIQUE - KEEP ON JUMPIN'
TTITLE6=FRANCE JOLI - THE HEART TO BREAK THE HEART
TTITLE7=REAL THING - YOU TO ME ARE EVERYTHING
TTITLE8=EDWIN STARR - H.A.P.P.Y. RADIO
TTITLE9=TEENA MARIE - SQUARE BIZ
TTITLE10=RICK JAMES - YOU AND I
TTITLE11=GRACE JONES - I NEED A MAN
TTITLE12=DISCO TEX - GET DANCIN'
TTITLE13=Ritchie Family - BRAZIL
TTITLE14=ORIGINALS - DOWN TO LOVE TOWN
TTITLE15=JIMMY RUFFIN - TELL ME WHAT YOU WANT
EXTD=
EXTT0=
EXTT1=
EXTT2=
EXTT3=
EXTT4=
EXTT5=
EXTT6=
EXTT7=
EXTT8=
EXTT9=
EXTT10=
EXTT11=
EXTT12=
EXTT13=
EXTT14=
EXTT15=
PLAYORDER=
